<svg data-v-2cb57da0="" version="1.0" xmlns="http://www.w3.org/2000/svg" xmlns:xlink="http://www.w3.org/1999/xlink" width="100%" height="100%" viewBox="0 0 340.000000 250.000000" preserveAspectRatio="xMidYMid meet" color-interpolation-filters="sRGB" style="margin: auto;">
  <rect data-v-2cb57da0="" x="0" y="0" width="100%" height="100%" fill="#FFFFFF00" fill-opacity="1" class="background"></rect>
  <rect data-v-2cb57da0="" x="0" y="0" width="100%" height="100%" fill="url(#watermark)" fill-opacity="1" class="watermarklayer"></rect>
  <g data-v-2cb57da0="" class="iconmbgsvg" transform="translate(96.08750153332949,68.59160232543945)">
    <g fill="#FFFFFF" hollow-target="textRect">
      <g transform="translate(7.8249969482421875,0)" mask="url(#0ca768fd-c047-4ad0-9412-32e3bdc16cbd)">
        <g>
          <rect fill="#FFFFFF" fill-opacity="0" stroke-width="2" x="0" y="0" width="140" height="112.81679358555945" class="image-rect"></rect>
          <svg filter="url(#colors2312079470)" x="0" y="0" width="140" height="112.81679358555945" filtersec="colorsf343557568" class="image-svg-svg primary" style="overflow: visible;">
            <svg xmlns="http://www.w3.org/2000/svg" xmlns:xlink="http://www.w3.org/1999/xlink" version="1.1" x="0px" y="0px" viewBox="21.714000701904297 27.20600128173828 56.57100296020508 45.586997985839844" enable-background="new 0 0 100 100" xml:space="preserve">
              <g>
                <path d="M48.458,72.793c-8.039,0-15.065-5.192-17.479-12.767c-0.9-0.292-1.75-0.669-2.538-1.125   c-4.149-2.402-6.727-6.863-6.727-11.64c0-4.778,2.577-9.24,6.726-11.645c1.815-1.052,3.848-1.665,5.923-1.792   c1.387-1.664,3.034-3.054,4.908-4.14c2.796-1.621,5.972-2.478,9.186-2.478c5.933,0,11.349,2.781,14.804,7.521   c2.782-0.905,5.928-0.582,8.488,0.898C74.99,37.507,77,40.986,77,44.71c0,1.441-0.298,2.862-0.868,4.176   c1.413,2.172,2.153,4.666,2.153,7.284c0,4.779-2.578,9.241-6.729,11.644c-3.51,2.033-7.857,2.362-11.588,0.902   c-0.738,0.598-1.517,1.134-2.324,1.603C54.843,71.938,51.667,72.793,48.458,72.793z M35.097,37.799   c-1.575,0.002-3.209,0.443-4.651,1.279c-2.918,1.691-4.731,4.827-4.731,8.184c0,3.354,1.813,6.488,4.731,8.179   c0.777,0.45,1.654,0.791,2.605,1.014c0.73,0.171,1.303,0.735,1.485,1.462c1.6,6.404,7.325,10.877,13.922,10.877   c2.506,0,4.991-0.67,7.182-1.937c0.925-0.536,1.806-1.192,2.613-1.948c0.613-0.575,1.522-0.706,2.275-0.32   c2.85,1.454,6.271,1.358,9.022-0.236c2.92-1.689,4.733-4.825,4.733-8.182c0-2.145-0.71-4.172-2.054-5.862   c-0.519-0.652-0.578-1.557-0.15-2.271C72.682,47.031,73,45.881,73,44.71c0-2.303-1.246-4.457-3.253-5.621   c-1.931-1.114-4.35-1.149-6.295-0.111c-0.945,0.503-2.114,0.176-2.66-0.739c-2.626-4.402-7.237-7.031-12.333-7.031   c-2.51,0-4.993,0.67-7.18,1.938c-1.693,0.981-3.15,2.28-4.332,3.862c-0.388,0.52-1.009,0.831-1.652,0.803   C35.255,37.81,35.136,37.803,35.097,37.799z"></path>
              </g>
            </svg>
          </svg>
          <defs>
            <filter id="colors2312079470">
              <feColorMatrix type="matrix" values="0 0 0 0 0.99609375  0 0 0 0 0.99609375  0 0 0 0 0.99609375  0 0 0 1 0" class="icon-fecolormatrix"></feColorMatrix>
            </filter>
            <filter id="colorsf343557568">
              <feColorMatrix type="matrix" values="0 0 0 0 0.99609375  0 0 0 0 0.99609375  0 0 0 0 0.99609375  0 0 0 1 0" class="icon-fecolormatrix"></feColorMatrix>
            </filter>
            <filter id="colorsb4034670985">
              <feColorMatrix type="matrix" values="0 0 0 0 0  0 0 0 0 0  0 0 0 0 0  0 0 0 1 0" class="icon-fecolormatrix"></feColorMatrix>
            </filter>
          </defs>
        </g>
      </g>
      <g transform="translate(0,47.24839782714844)">
        <g data-gra="path-name" fill-rule="" class="tp-name">
          <g transform="scale(1)">
            <g>
              <path d="M20.04-14.7L30.25 0 20.88 0 15.03-9.37 9.25 0 0.08 0 10.03-15.34 0.68-29.98 9.66-29.98 15.07-20.71 20.28-29.98 29.53-29.98 20.04-14.7ZM43.72 0.41L43.72 0.41Q38.02 0.41 35.08-2.67 32.14-5.74 32.14-11.5L32.14-11.5Q32.14-17.29 35.31-20.47 38.49-23.65 44.36-23.65L44.36-23.65Q48.4-23.65 51.97-21.88L51.97-21.88 49.61-15.96Q48.15-16.59 46.92-16.97 45.69-17.35 44.36-17.35L44.36-17.35Q42.41-17.35 41.34-15.83 40.28-14.31 40.28-11.55L40.28-11.55Q40.28-5.97 44.4-5.97L44.4-5.97Q47.93-5.97 51.17-8.02L51.17-8.02 51.17-1.64Q48.07 0.41 43.72 0.41ZM63.8-31.91L63.8 0 55.78 0 55.78-31.91 63.8-31.91ZM91.55-11.67L91.55-11.67Q91.55-5.97 88.48-2.78 85.42 0.41 79.9 0.41L79.9 0.41Q74.61 0.41 71.48-2.85 68.35-6.11 68.35-11.67L68.35-11.67Q68.35-17.35 71.42-20.5 74.48-23.65 80.02-23.65L80.02-23.65Q83.45-23.65 86.07-22.19 88.7-20.73 90.12-18.02 91.55-15.3 91.55-11.67ZM76.49-11.67L76.49-11.67Q76.49-8.67 77.29-7.11 78.09-5.54 79.98-5.54L79.98-5.54Q81.85-5.54 82.62-7.11 83.38-8.67 83.38-11.67L83.38-11.67Q83.38-14.64 82.61-16.16 81.83-17.68 79.94-17.68L79.94-17.68Q78.09-17.68 77.29-16.17 76.49-14.66 76.49-11.67ZM118.72 0L112.67 0 111.67-2.89 111.19-2.89Q110.19-1.29 108.39-0.44 106.6 0.41 104.18 0.41L104.18 0.41Q100.34 0.41 98.21-1.81 96.08-4.04 96.08-8.1L96.08-8.1 96.08-23.24 104.1-23.24 104.1-10.54Q104.1-8.26 104.74-7.1 105.39-5.93 106.87-5.93L106.87-5.93Q108.94-5.93 109.82-7.56 110.7-9.19 110.7-13.06L110.7-13.06 110.7-23.24 118.72-23.24 118.72 0ZM131.48 0.41L131.48 0.41Q128.99 0.41 127.14-1 125.28-2.42 124.27-5.17 123.25-7.92 123.25-11.59L123.25-11.59Q123.25-17.25 125.53-20.45 127.8-23.65 131.78-23.65L131.78-23.65Q133.73-23.65 135.2-22.87 136.66-22.09 137.87-20.24L137.87-20.24 138.04-20.24Q137.65-22.97 137.65-25.7L137.65-25.7 137.65-31.91 145.73-31.91 145.73 0 139.68 0 137.96-2.93 137.65-2.93Q135.58 0.41 131.48 0.41ZM134.76-5.93L134.76-5.93Q136.68-5.93 137.47-7.14 138.26-8.35 138.33-10.87L138.33-10.87 138.33-11.5Q138.33-14.58 137.44-15.88 136.56-17.19 134.67-17.19L134.67-17.19Q133.1-17.19 132.22-15.7 131.35-14.21 131.35-11.46L131.35-11.46Q131.35-8.76 132.23-7.34 133.12-5.93 134.76-5.93Z" transform="translate(-0.08000000566244125, 31.90999984741211)"></path>
            </g> <!----> <!----> <!----> <!----> <!----> <!----> <!---->
          </g>
        </g> <!---->
      </g>
    </g>
  </g>
  <mask id="0ca768fd-c047-4ad0-9412-32e3bdc16cbd">
    <g fill="white">
      <g>
        <rect fill-opacity="1" stroke-width="2" x="0" y="0" width="140" height="112.81679358555945" class="image-rect"></rect>
        <svg x="0" y="0" width="140" height="112.81679358555945" class="image-svg-svg primary" style="overflow: visible;" filter="url(#colorsf343557568)">
          <svg xmlns="http://www.w3.org/2000/svg" xmlns:xlink="http://www.w3.org/1999/xlink" version="1.1" x="0px" y="0px" viewBox="21.714000701904297 27.20600128173828 56.57100296020508 45.586997985839844" enable-background="new 0 0 100 100" xml:space="preserve">
            <g>
              <path d="M48.458,72.793c-8.039,0-15.065-5.192-17.479-12.767c-0.9-0.292-1.75-0.669-2.538-1.125   c-4.149-2.402-6.727-6.863-6.727-11.64c0-4.778,2.577-9.24,6.726-11.645c1.815-1.052,3.848-1.665,5.923-1.792   c1.387-1.664,3.034-3.054,4.908-4.14c2.796-1.621,5.972-2.478,9.186-2.478c5.933,0,11.349,2.781,14.804,7.521   c2.782-0.905,5.928-0.582,8.488,0.898C74.99,37.507,77,40.986,77,44.71c0,1.441-0.298,2.862-0.868,4.176   c1.413,2.172,2.153,4.666,2.153,7.284c0,4.779-2.578,9.241-6.729,11.644c-3.51,2.033-7.857,2.362-11.588,0.902   c-0.738,0.598-1.517,1.134-2.324,1.603C54.843,71.938,51.667,72.793,48.458,72.793z M35.097,37.799   c-1.575,0.002-3.209,0.443-4.651,1.279c-2.918,1.691-4.731,4.827-4.731,8.184c0,3.354,1.813,6.488,4.731,8.179   c0.777,0.45,1.654,0.791,2.605,1.014c0.73,0.171,1.303,0.735,1.485,1.462c1.6,6.404,7.325,10.877,13.922,10.877   c2.506,0,4.991-0.67,7.182-1.937c0.925-0.536,1.806-1.192,2.613-1.948c0.613-0.575,1.522-0.706,2.275-0.32   c2.85,1.454,6.271,1.358,9.022-0.236c2.92-1.689,4.733-4.825,4.733-8.182c0-2.145-0.71-4.172-2.054-5.862   c-0.519-0.652-0.578-1.557-0.15-2.271C72.682,47.031,73,45.881,73,44.71c0-2.303-1.246-4.457-3.253-5.621   c-1.931-1.114-4.35-1.149-6.295-0.111c-0.945,0.503-2.114,0.176-2.66-0.739c-2.626-4.402-7.237-7.031-12.333-7.031   c-2.51,0-4.993,0.67-7.18,1.938c-1.693,0.981-3.15,2.28-4.332,3.862c-0.388,0.52-1.009,0.831-1.652,0.803   C35.255,37.81,35.136,37.803,35.097,37.799z"></path>
            </g>
          </svg>
        </svg>
        <defs></defs>
      </g>
    </g>
    <g transform="translate(-7.8249969482421875,47.24839782714844)">
      <rect fill="black" fill-opacity="1" x="-3.5" y="-3.5" width="152.64999389648438" height="39.31999969482422"></rect>
      <rect fill="black" fill-opacity="1" x="-3.5" y="-3.5"></rect>
    </g>
    <g transform="translate(-7.8249969482421875,47.24839782714844)" fill="black">
      <g data-gra="path-name" fill-rule="" class="tp-name">
        <g transform="scale(1)">
          <g>
            <path d="M20.04-14.7L30.25 0 20.88 0 15.03-9.37 9.25 0 0.08 0 10.03-15.34 0.68-29.98 9.66-29.98 15.07-20.71 20.28-29.98 29.53-29.98 20.04-14.7ZM43.72 0.41L43.72 0.41Q38.02 0.41 35.08-2.67 32.14-5.74 32.14-11.5L32.14-11.5Q32.14-17.29 35.31-20.47 38.49-23.65 44.36-23.65L44.36-23.65Q48.4-23.65 51.97-21.88L51.97-21.88 49.61-15.96Q48.15-16.59 46.92-16.97 45.69-17.35 44.36-17.35L44.36-17.35Q42.41-17.35 41.34-15.83 40.28-14.31 40.28-11.55L40.28-11.55Q40.28-5.97 44.4-5.97L44.4-5.97Q47.93-5.97 51.17-8.02L51.17-8.02 51.17-1.64Q48.07 0.41 43.72 0.41ZM63.8-31.91L63.8 0 55.78 0 55.78-31.91 63.8-31.91ZM91.55-11.67L91.55-11.67Q91.55-5.97 88.48-2.78 85.42 0.41 79.9 0.41L79.9 0.41Q74.61 0.41 71.48-2.85 68.35-6.11 68.35-11.67L68.35-11.67Q68.35-17.35 71.42-20.5 74.48-23.65 80.02-23.65L80.02-23.65Q83.45-23.65 86.07-22.19 88.7-20.73 90.12-18.02 91.55-15.3 91.55-11.67ZM76.49-11.67L76.49-11.67Q76.49-8.67 77.29-7.11 78.09-5.54 79.98-5.54L79.98-5.54Q81.85-5.54 82.62-7.11 83.38-8.67 83.38-11.67L83.38-11.67Q83.38-14.64 82.61-16.16 81.83-17.68 79.94-17.68L79.94-17.68Q78.09-17.68 77.29-16.17 76.49-14.66 76.49-11.67ZM118.72 0L112.67 0 111.67-2.89 111.19-2.89Q110.19-1.29 108.39-0.44 106.6 0.41 104.18 0.41L104.18 0.41Q100.34 0.41 98.21-1.81 96.08-4.04 96.08-8.1L96.08-8.1 96.08-23.24 104.1-23.24 104.1-10.54Q104.1-8.26 104.74-7.1 105.39-5.93 106.87-5.93L106.87-5.93Q108.94-5.93 109.82-7.56 110.7-9.19 110.7-13.06L110.7-13.06 110.7-23.24 118.72-23.24 118.72 0ZM131.48 0.41L131.48 0.41Q128.99 0.41 127.14-1 125.28-2.42 124.27-5.17 123.25-7.92 123.25-11.59L123.25-11.59Q123.25-17.25 125.53-20.45 127.8-23.65 131.78-23.65L131.78-23.65Q133.73-23.65 135.2-22.87 136.66-22.09 137.87-20.24L137.87-20.24 138.04-20.24Q137.65-22.97 137.65-25.7L137.65-25.7 137.65-31.91 145.73-31.91 145.73 0 139.68 0 137.96-2.93 137.65-2.93Q135.58 0.41 131.48 0.41ZM134.76-5.93L134.76-5.93Q136.68-5.93 137.47-7.14 138.26-8.35 138.33-10.87L138.33-10.87 138.33-11.5Q138.33-14.58 137.44-15.88 136.56-17.19 134.67-17.19L134.67-17.19Q133.1-17.19 132.22-15.7 131.35-14.21 131.35-11.46L131.35-11.46Q131.35-8.76 132.23-7.34 133.12-5.93 134.76-5.93Z" transform="translate(-0.08000000566244125, 31.90999984741211)"></path>
          </g>
        </g>
      </g>
    </g>
  </mask>
  <defs v-gra="od"></defs>
</svg>