<svg xmlns="http://www.w3.org/2000/svg" viewBox="0 0 20.08 16.25">
  <g>
    <g>
      <path d="M19.94 0H16l-.46.54-.43.52-.45.53-3.58 4.26-.17-.2 3.22-3.84.44-.53.43-.51.45-.54a.14.14 0 0 0 0-.19.14.14 0 0 0-.2 0l-.45.55-.43.52-.44.53-3.19 3.8-.16-.19 2.89-3.43.45-.53.44-.52.44-.54a.14.14 0 0 0 0-.19.14.14 0 0 0-.19 0l-.45.54-.44.52-.45.53L10.39 5l-.17-.21 2.53-3 .44-.53.44-.52.45-.54a.13.13 0 0 0 0-.19.14.14 0 0 0-.19 0l-.45.54-.44.56-.45.53-2.5 3-2.5-3H3.61l-.21-.3H7a.14.14 0 1 0 0-.28H3.16L3 .81h3.6a.14.14 0 1 0 0-.28H2.72L2.51.28H6.1a.14.14 0 0 0 0-.28h-4v.13l.44.53.46.63.44.53 4.47 5.33-.17.2-4.8-5.71-.45-.53L2 .58 1.6 0a.14.14 0 0 0-.19 0 .14.14 0 0 0 0 .19l.45.53.45.53.45.53 4.8 5.78-.16.19-5.13-6.11-.44-.53-.45-.53L.93 0a.14.14 0 0 0-.21.23l.44.53.45.53.44.53L7.22 8l-.17.2-5.47-6.56-.44-.53L.69.58.24 0A.14.14 0 0 0 0 0a.14.14 0 0 0 0 .23l.48.52.45.53.44.53 5.51 6.58-5.07 6v.07H5.5l-.21.26H1.47a.14.14 0 1 0 0 .28h3.59l-.21.25H1a.14.14 0 0 0-.14.14.13.13 0 0 0 .14.13h3.6l-.2.48H.58a.14.14 0 0 0 0 .28h4L9 10.92l.17.2L5 16a.14.14 0 0 0 0 .19.14.14 0 0 0 .09 0 .13.13 0 0 0 .11 0l4.09-4.87.16.2L5.74 16a.14.14 0 0 0 0 .19.14.14 0 0 0 .09 0 .14.14 0 0 0 .11 0l3.74-4.46.17.2L6.44 16a.14.14 0 0 0 0 .19.14.14 0 0 0 .09 0 .13.13 0 0 0 .11 0l3.39-4 2.06 2.45H16l.22.27h-3.6a.14.14 0 0 0 0 .28h3.83l.2.24h-3.6a.14.14 0 0 0-.14.14.14.14 0 0 0 .14.13h3.83l.21.25h-3.55a.14.14 0 0 0 0 .28h4v-.07l-.44-.53-.44-.63-.46-.54-4-4.81.17-.2 4.35 5.19.45.54.43.52.45.53a.13.13 0 0 0 .11.05.14.14 0 0 0 .09 0 .14.14 0 0 0 0-.19l-.44-.53-.46-.56-.46-.54-4.38-5.25.16-.21 4.7 5.59.46.54.43.51.45.53a.13.13 0 0 0 .1.05.14.14 0 0 0 .09 0 .14.14 0 0 0 0-.19l-.44-.53L18 15l-.46-.54-4.69-5.66.15-.2 5 6 .46.54.43.51.44.53a.13.13 0 0 0 .11.05.14.14 0 0 0 .09 0 .14.14 0 0 0 0-.19l-.45-.53-.35-.51-.46-.54-5.08-6 5.51-6.57v-.24H15l.21-.25h3.83a.14.14 0 1 0 0-.28h-3.6l.2-.24h3.83a.14.14 0 0 0 0-.28h-3.58l.22-.27h3.83a.14.14 0 0 0 .14-.14.14.14 0 0 0-.14-.19zM4.28 14.38L8.2 9.71l.35-.41.34-.41.35-.42a.14.14 0 0 0 0-.19.14.14 0 0 0-.19 0l-.35.42-.34.41-.36.42-4.08 4.85h-.33L7.85 9.3l.35-.41.34-.41.35-.42a.14.14 0 0 0-.21-.18l-.35.42-.33.41-.35.41-4.42 5.26h-.34l4.62-5.49.34-.41.34-.41.35-.42a.14.14 0 0 0 0-.19.14.14 0 0 0-.19 0L8 7.89l-.34.41-.34.41-4.79 5.67H2.2l5-5.91.35-.41.34-.41.35-.42v-.16l-4.4-5.2H5.3l3.6 4.28.35.42.34.4.35.41a.14.14 0 0 0 .11 0 .13.13 0 0 0 .09 0 .14.14 0 0 0 0-.2L9.8 6.8l-.34-.4-.35-.4-3.45-4.13H6l3.24 3.87.35.42.34.41.35.41a.14.14 0 0 0 .11.05.14.14 0 0 0 .11-.23l-.34-.41L9.81 6l-.35-.42-3.1-3.7h.31l2.91 3.46.35.42.34.41.35.41a.14.14 0 0 0 .11 0 .15.15 0 0 0 .09 0 .14.14 0 0 0 0-.2L10.49 6l-.34-.4-.35-.42L7 1.87h.35l2.58 3.05.35.42.34.4.35.41h.21l3.6-4.29h1.46l-4.36 5.2-.35.42-.34.41-.35.41a.14.14 0 0 0 0 .2.15.15 0 0 0 .09 0 .14.14 0 0 0 .11-.05l.35-.41.34-.41.35-.42 4.52-5.34h.4l-4.77 5.61-.35.42-.34.41-.35.41a.14.14 0 0 0 0 .19.13.13 0 0 0 .09 0 .13.13 0 0 0 .1 0l.35-.41.34-.41.35-.42 4.87-5.79h.31l-5 6-.35.42-.34.41-.35.41a.14.14 0 0 0 0 .2.14.14 0 0 0 .09 0 .13.13 0 0 0 .11 0l.35-.41.34-.41.35-.42L18 1.87h.33l-5.4 6.43-.35.42-.34.41-.35.41v.06l3.92 4.67h-1.47l-3.16-3.77-.35-.41-.34-.41-.35-.41a.14.14 0 0 0-.19 0 .14.14 0 0 0 0 .2l.35.41.34.41.35.41 3 3.59h-.33L10.84 11l-.35-.41-.34-.41-.35-.39a.14.14 0 0 0-.21.18l.35.41.34.41.35.41 2.67 3.18H13l-2.47-2.95-.38-.43-.34-.41-.35-.42a.14.14 0 0 0-.19 0 .14.14 0 0 0 0 .19l.35.42.34.41.35.41 2.32 2.77h-.33l-2.12-2.53-.35-.41-.37-.43-.35-.41H8.9l-3.16 3.79z" fill="#334458" />
    </g>
  </g>
</svg>