<svg data-v-2cb57da0="" version="1.0" xmlns="http://www.w3.org/2000/svg" xmlns:xlink="http://www.w3.org/1999/xlink" width="100%" height="100%" viewBox="0 0 340.000000 250.000000" preserveAspectRatio="xMidYMid meet" color-interpolation-filters="sRGB" style="margin: auto;">
    <rect data-v-2cb57da0="" x="0" y="0" width="100%" height="100%" fill="#ffffff00" fill-opacity="1" class="background"></rect> <!---->
    <g data-v-2cb57da0="" fill="#00a19a" class="icon-text-wrapper icon-svg-group iconsvg" transform="translate(67.8499984741211,100.6299991607666)">
        <g class="iconsvg-imagesvg" transform="translate(0,0.019151687622070312)">
            <g>
                <rect fill="#00a19a" fill-opacity="0" stroke-width="2" x="0" y="0" width="60" height="48.701694007256556" class="image-rect"></rect>
                <svg x="0" y="0" width="60" height="48.701694007256556" filtersec="colorsb5389232342" class="image-svg-svg primary" style="overflow: visible;">
                    <svg xmlns="http://www.w3.org/2000/svg" viewBox="-0.06015641242265701 -0.06788897514343262 20.14950942993164 16.355318069458008">
                        <g>
                            <g>
                                <path d="M19.94 0H16l-.46.54-.43.52-.45.53-3.58 4.26-.17-.2 3.22-3.84.44-.53.43-.51.45-.54a.14.14 0 0 0 0-.19.14.14 0 0 0-.2 0l-.45.55-.43.52-.44.53-3.19 3.8-.16-.19 2.89-3.43.45-.53.44-.52.44-.54a.14.14 0 0 0 0-.19.14.14 0 0 0-.19 0l-.45.54-.44.52-.45.53L10.39 5l-.17-.21 2.53-3 .44-.53.44-.52.45-.54a.13.13 0 0 0 0-.19.14.14 0 0 0-.19 0l-.45.54-.44.56-.45.53-2.5 3-2.5-3H3.61l-.21-.3H7a.14.14 0 1 0 0-.28H3.16L3 .81h3.6a.14.14 0 1 0 0-.28H2.72L2.51.28H6.1a.14.14 0 0 0 0-.28h-4v.13l.44.53.46.63.44.53 4.47 5.33-.17.2-4.8-5.71-.45-.53L2 .58 1.6 0a.14.14 0 0 0-.19 0 .14.14 0 0 0 0 .19l.45.53.45.53.45.53 4.8 5.78-.16.19-5.13-6.11-.44-.53-.45-.53L.93 0a.14.14 0 0 0-.21.23l.44.53.45.53.44.53L7.22 8l-.17.2-5.47-6.56-.44-.53L.69.58.24 0A.14.14 0 0 0 0 0a.14.14 0 0 0 0 .23l.48.52.45.53.44.53 5.51 6.58-5.07 6v.07H5.5l-.21.26H1.47a.14.14 0 1 0 0 .28h3.59l-.21.25H1a.14.14 0 0 0-.14.14.13.13 0 0 0 .14.13h3.6l-.2.48H.58a.14.14 0 0 0 0 .28h4L9 10.92l.17.2L5 16a.14.14 0 0 0 0 .19.14.14 0 0 0 .09 0 .13.13 0 0 0 .11 0l4.09-4.87.16.2L5.74 16a.14.14 0 0 0 0 .19.14.14 0 0 0 .09 0 .14.14 0 0 0 .11 0l3.74-4.46.17.2L6.44 16a.14.14 0 0 0 0 .19.14.14 0 0 0 .09 0 .13.13 0 0 0 .11 0l3.39-4 2.06 2.45H16l.22.27h-3.6a.14.14 0 0 0 0 .28h3.83l.2.24h-3.6a.14.14 0 0 0-.14.14.14.14 0 0 0 .14.13h3.83l.21.25h-3.55a.14.14 0 0 0 0 .28h4v-.07l-.44-.53-.44-.63-.46-.54-4-4.81.17-.2 4.35 5.19.45.54.43.52.45.53a.13.13 0 0 0 .11.05.14.14 0 0 0 .09 0 .14.14 0 0 0 0-.19l-.44-.53-.46-.56-.46-.54-4.38-5.25.16-.21 4.7 5.59.46.54.43.51.45.53a.13.13 0 0 0 .1.05.14.14 0 0 0 .09 0 .14.14 0 0 0 0-.19l-.44-.53L18 15l-.46-.54-4.69-5.66.15-.2 5 6 .46.54.43.51.44.53a.13.13 0 0 0 .11.05.14.14 0 0 0 .09 0 .14.14 0 0 0 0-.19l-.45-.53-.35-.51-.46-.54-5.08-6 5.51-6.57v-.24H15l.21-.25h3.83a.14.14 0 1 0 0-.28h-3.6l.2-.24h3.83a.14.14 0 0 0 0-.28h-3.58l.22-.27h3.83a.14.14 0 0 0 .14-.14.14.14 0 0 0-.14-.19zM4.28 14.38L8.2 9.71l.35-.41.34-.41.35-.42a.14.14 0 0 0 0-.19.14.14 0 0 0-.19 0l-.35.42-.34.41-.36.42-4.08 4.85h-.33L7.85 9.3l.35-.41.34-.41.35-.42a.14.14 0 0 0-.21-.18l-.35.42-.33.41-.35.41-4.42 5.26h-.34l4.62-5.49.34-.41.34-.41.35-.42a.14.14 0 0 0 0-.19.14.14 0 0 0-.19 0L8 7.89l-.34.41-.34.41-4.79 5.67H2.2l5-5.91.35-.41.34-.41.35-.42v-.16l-4.4-5.2H5.3l3.6 4.28.35.42.34.4.35.41a.14.14 0 0 0 .11 0 .13.13 0 0 0 .09 0 .14.14 0 0 0 0-.2L9.8 6.8l-.34-.4-.35-.4-3.45-4.13H6l3.24 3.87.35.42.34.41.35.41a.14.14 0 0 0 .11.05.14.14 0 0 0 .11-.23l-.34-.41L9.81 6l-.35-.42-3.1-3.7h.31l2.91 3.46.35.42.34.41.35.41a.14.14 0 0 0 .11 0 .15.15 0 0 0 .09 0 .14.14 0 0 0 0-.2L10.49 6l-.34-.4-.35-.42L7 1.87h.35l2.58 3.05.35.42.34.4.35.41h.21l3.6-4.29h1.46l-4.36 5.2-.35.42-.34.41-.35.41a.14.14 0 0 0 0 .2.15.15 0 0 0 .09 0 .14.14 0 0 0 .11-.05l.35-.41.34-.41.35-.42 4.52-5.34h.4l-4.77 5.61-.35.42-.34.41-.35.41a.14.14 0 0 0 0 .19.13.13 0 0 0 .09 0 .13.13 0 0 0 .1 0l.35-.41.34-.41.35-.42 4.87-5.79h.31l-5 6-.35.42-.34.41-.35.41a.14.14 0 0 0 0 .2.14.14 0 0 0 .09 0 .13.13 0 0 0 .11 0l.35-.41.34-.41.35-.42L18 1.87h.33l-5.4 6.43-.35.42-.34.41-.35.41v.06l3.92 4.67h-1.47l-3.16-3.77-.35-.41-.34-.41-.35-.41a.14.14 0 0 0-.19 0 .14.14 0 0 0 0 .2l.35.41.34.41.35.41 3 3.59h-.33L10.84 11l-.35-.41-.34-.41-.35-.39a.14.14 0 0 0-.21.18l.35.41.34.41.35.41 2.67 3.18H13l-2.47-2.95-.38-.43-.34-.41-.35-.42a.14.14 0 0 0-.19 0 .14.14 0 0 0 0 .19l.35.42.34.41.35.41 2.32 2.77h-.33l-2.12-2.53-.35-.41-.37-.43-.35-.41H8.9l-3.16 3.79z" fill="#00a19a"></path>
                            </g>
                        </g>
                    </svg>
                </svg> <!---->
            </g>
        </g>
        <g transform="translate(67,0)">
            <g data-gra="path-name" fill-rule="" class="tp-name iconsvg-namesvg">
                <g transform="scale(1)">
                    <g>
                        <path d="M16.74-31.34L16.74-31.34Q20.99-31.34 23.71-29.33 26.43-27.33 27.03-24.4L27.03-24.4 24.76-23.38Q24.34-25.95 22.34-27.45 20.33-28.94 16.86-28.94L16.86-28.94Q13.57-28.94 11.06-27.09 8.55-25.24 7.18-21.86 5.8-18.48 5.8-13.99L5.8-13.99Q5.8-9.57 7.21-6.16 8.61-2.75 11.12-0.9 13.63 0.96 16.86 0.96L16.86 0.96Q20.27 0.96 22.28-0.48 24.28-1.91 24.76-4.6L24.76-4.6 27.03-3.59Q26.43-0.72 23.68 1.29 20.93 3.29 16.74 3.29L16.74 3.29Q12.74 3.29 9.66 1.08 6.58-1.14 4.87-5.08 3.17-9.03 3.17-13.99L3.17-13.99Q3.17-19.02 4.87-22.96 6.58-26.91 9.66-29.12 12.74-31.34 16.74-31.34ZM34.39-45.45L37.02-45.45 37.02 2.69 34.39 2.69 34.39-45.45ZM58.78-31.34L58.78-31.34Q62.79-31.34 65.87-29.12 68.95-26.91 70.65-22.96 72.36-19.02 72.36-13.99L72.36-13.99Q72.36-8.97 70.65-5.05 68.95-1.14 65.87 1.08 62.79 3.29 58.78 3.29L58.78 3.29Q54.78 3.29 51.7 1.08 48.62-1.14 46.91-5.08 45.21-9.03 45.21-13.99L45.21-13.99Q45.21-19.02 46.91-22.96 48.62-26.91 51.7-29.12 54.78-31.34 58.78-31.34ZM58.78-28.94L58.78-28.94Q55.55-28.94 53.07-27.09 50.59-25.24 49.22-21.83 47.84-18.42 47.84-13.99L47.84-13.99Q47.84-9.57 49.22-6.19 50.59-2.81 53.07-0.96 55.55 0.9 58.78 0.9L58.78 0.9Q62.01 0.9 64.52-0.96 67.04-2.81 68.44-6.19 69.85-9.57 69.85-13.99L69.85-13.99Q69.85-18.42 68.44-21.83 67.04-25.24 64.52-27.09 62.01-28.94 58.78-28.94ZM105.61 2.69L103.51 2.69Q103.4 0.42 103.28-5.26L103.28-5.26Q101.72-1.08 98.58 1.11 95.44 3.29 91.02 3.29L91.02 3.29Q85.69 3.29 82.73 0.24 79.77-2.81 79.77-8.31L79.77-8.31 79.77-30.74 82.35-30.74 82.35-8.67Q82.35-3.77 84.56-1.41 86.77 0.96 91.38 0.96L91.38 0.96Q94.72 0.96 97.36-0.75 99.99-2.45 101.48-5.47 102.98-8.49 102.98-12.38L102.98-12.38 102.98-30.74 105.43-30.74 105.43-5.32Q105.43-0.3 105.61 2.69L105.61 2.69ZM140.47 2.69L138.26 2.69Q138.02 0.6 137.9-5.26L137.9-5.26Q136.41-1.2 133.48 1.05 130.54 3.29 126.48 3.29L126.48 3.29Q122.53 3.29 119.51 1.11 116.49-1.08 114.82-4.99 113.14-8.91 113.14-13.99L113.14-13.99Q113.14-19.08 114.82-23.02 116.49-26.97 119.51-29.15 122.53-31.34 126.48-31.34L126.48-31.34Q130.49-31.34 133.42-29.12 136.35-26.91 137.84-22.96L137.84-22.96 137.84-45.45 140.29-45.45 140.29-5.32Q140.29-0.3 140.47 2.69L140.47 2.69ZM137.84-13.99L137.84-13.99Q137.84-18.42 136.44-21.83 135.03-25.24 132.52-27.09 130.01-28.94 126.78-28.94L126.78-28.94Q123.55-28.94 121.07-27.06 118.58-25.18 117.18-21.8 115.77-18.42 115.77-13.99L115.77-13.99Q115.77-9.63 117.18-6.25 118.58-2.87 121.1-0.99 123.61 0.9 126.78 0.9L126.78 0.9Q130.01 0.9 132.52-0.99 135.03-2.87 136.44-6.25 137.84-9.63 137.84-13.99Z" transform="translate(-3.1700000762939453, 45.45000076293945)"></path>
                    </g> <!----> <!----> <!----> <!----> <!----> <!----> <!---->
                </g>
            </g> <!---->
        </g>
    </g>
    <defs v-gra="od"></defs>
</svg>